<svg width="120" height="112" viewBox="0 0 120 112" fill="none" xmlns="http://www.w3.org/2000/svg">
<path d="M119.134 45.3296C119.134 70.1437 88.5604 111.227 61.1916 111.227C33.8229 111.227 0.200195 70.1437 0.200195 45.3296C0.200195 20.5156 33.8229 0.399902 61.1916 0.399902C88.5604 0.399902 119.134 20.5156 119.134 45.3296Z" fill="white"/>
<ellipse cx="86.0958" cy="51.7811" rx="7.87806" ry="7.14268" fill="#4192F5"/>
<ellipse cx="35.2702" cy="51.7811" rx="7.87806" ry="7.14268" fill="#4192F5"/>
<path d="M39.5784 43.5541C37.3593 43.5541 35.2172 43.8748 33.152 44.5161C31.0869 45.1575 29.1307 46.049 27.2836 47.1906C25.4365 48.3322 23.7177 49.6919 22.1271 51.2696C20.5237 52.8602 19.0678 54.5919 17.7594 56.4646L21.8192 59.1006C23.0635 57.5229 24.359 56.0926 25.7059 54.8099C27.0399 53.5272 28.4445 52.4305 29.9196 51.5198C31.3947 50.6219 32.934 49.9228 34.5374 49.4225C36.1408 48.9351 37.8211 48.6914 39.5784 48.6914C41.3358 48.6914 43.0033 48.8774 44.581 49.2494C46.1588 49.6342 47.666 50.2114 49.1026 50.981C50.5392 51.7507 51.9182 52.7191 53.2394 53.8864C54.5477 55.0536 55.824 56.4262 57.0683 58.0039L61.1281 55.3679C59.8197 53.4951 58.3766 51.8212 56.7989 50.3461C55.234 48.8838 53.5472 47.646 51.7386 46.6326C49.9171 45.6321 47.9931 44.8689 45.9664 44.343C43.9268 43.8171 41.7975 43.5541 39.5784 43.5541Z" fill="#4192F5"/>
<path d="M90.4051 43.5541C88.186 43.5541 86.0439 43.8748 83.9787 44.5161C81.9135 45.1575 79.9574 46.049 78.1103 47.1906C76.2632 48.3322 74.5443 49.6919 72.9537 51.2696C71.3503 52.8602 69.8945 54.5919 68.5861 56.4646L72.6459 59.1006C73.8901 57.5229 75.1857 56.0926 76.5325 54.8099C77.8665 53.5272 79.2711 52.4305 80.7462 51.5198C82.2214 50.6219 83.7606 49.9228 85.364 49.4225C86.9674 48.9351 88.6478 48.6914 90.4051 48.6914C92.1624 48.6914 93.8299 48.8774 95.4077 49.2494C96.9854 49.6342 98.4926 50.2114 99.9293 50.981C101.366 51.7507 102.745 52.7191 104.066 53.8864C105.374 55.0536 106.651 56.4262 107.895 58.0039L111.955 55.3679C110.646 53.4951 109.203 51.8212 107.626 50.3461C106.061 48.8838 104.374 47.646 102.565 46.6326C100.744 45.6321 98.8197 44.8689 96.793 44.343C94.7535 43.8171 92.6242 43.5541 90.4051 43.5541Z" fill="#4192F5"/>
<path d="M63.9754 86.7355C61.7563 86.7355 59.6142 86.4148 57.549 85.7734C55.4838 85.1321 53.5277 84.2406 51.6806 83.099C49.8335 81.9573 48.1146 80.5977 46.5241 79.0199C44.9207 77.4294 43.4648 75.6977 42.1564 73.8249L46.2162 71.1889C47.4604 72.7667 48.756 74.1969 50.1028 75.4796C51.4369 76.7623 52.8414 77.8591 54.3166 78.7698C55.7917 79.6677 57.3309 80.3668 58.9343 80.867C60.5377 81.3545 62.2181 81.5982 63.9754 81.5982C65.7327 81.5982 67.4003 81.4122 68.978 81.0402C70.5557 80.6554 72.0629 80.0782 73.4996 79.3085C74.9362 78.5389 76.3151 77.5704 77.6363 76.4032C78.9447 75.2359 80.221 73.8634 81.4652 72.2857L85.525 74.9216C84.2167 76.7944 82.7736 78.4684 81.1959 79.9435C79.631 81.4058 77.9442 82.6436 76.1356 83.6569C74.3141 84.6575 72.39 85.4207 70.3633 85.9466C68.3238 86.4725 66.1945 86.7355 63.9754 86.7355Z" fill="#4192F5"/>
</svg>
