<svg width="119" height="111" viewBox="0 0 119 111" fill="none" xmlns="http://www.w3.org/2000/svg">
<path d="M118.933 44.9297C118.933 69.7438 88.3602 110.827 60.9915 110.827C33.6227 110.827 0 69.7438 0 44.9297C0 20.1157 33.6227 0 60.9915 0C88.3602 0 118.933 20.1157 118.933 44.9297Z" fill="white"/>
<ellipse cx="92.8781" cy="52.1427" rx="7.87806" ry="7.14268" fill="#4192F5"/>
<ellipse cx="44.8781" cy="52.1427" rx="7.87806" ry="7.14268" fill="#4192F5"/>
<path d="M39.3787 43.1542C37.1596 43.1542 35.0175 43.4749 32.9523 44.1162C30.8871 44.7576 28.931 45.6491 27.0839 46.7907C25.2368 47.9323 23.5179 49.292 21.9274 50.8697C20.324 52.4603 18.8681 54.192 17.5597 56.0647L21.6195 58.7007C22.8638 57.123 24.1593 55.6927 25.5062 54.41C26.8402 53.1273 28.2448 52.0306 29.7199 51.1199C31.195 50.222 32.7343 49.5229 34.3377 49.0226C35.9411 48.5352 37.6214 48.2915 39.3787 48.2915C41.1361 48.2915 42.8036 48.4775 44.3813 48.8495C45.9591 49.2343 47.4663 49.8115 48.9029 50.5811C50.3395 51.3507 51.7185 52.3192 53.0397 53.4865C54.348 54.6537 55.6243 56.0262 56.8686 57.604L60.9284 54.968C59.62 53.0952 58.1769 51.4213 56.5992 49.9462C55.0343 48.4839 53.3475 47.2461 51.5389 46.2327C49.7174 45.2322 47.7933 44.469 45.7667 43.9431C43.7271 43.4171 41.5978 43.1542 39.3787 43.1542Z" fill="#4192F5"/>
<path d="M90.2054 43.1542C87.9863 43.1542 85.8442 43.4749 83.779 44.1162C81.7138 44.7576 79.7577 45.6491 77.9106 46.7907C76.0634 47.9323 74.3446 49.292 72.754 50.8697C71.1506 52.4603 69.6948 54.192 68.3864 56.0647L72.4462 58.7007C73.6904 57.123 74.986 55.6927 76.3328 54.41C77.6668 53.1273 79.0714 52.0306 80.5465 51.1199C82.0217 50.222 83.5609 49.5229 85.1643 49.0226C86.7677 48.5352 88.4481 48.2915 90.2054 48.2915C91.9627 48.2915 93.6302 48.4775 95.208 48.8495C96.7857 49.2343 98.2929 49.8115 99.7296 50.5811C101.166 51.3507 102.545 52.3192 103.866 53.4865C105.175 54.6537 106.451 56.0262 107.695 57.604L111.755 54.968C110.447 53.0952 109.004 51.4213 107.426 49.9462C105.861 48.4839 104.174 47.2461 102.366 46.2327C100.544 45.2322 98.62 44.469 96.5933 43.9431C94.5538 43.4171 92.4245 43.1542 90.2054 43.1542Z" fill="#4192F5"/>
<path d="M63.7757 86.3356C61.5566 86.3356 59.4145 86.0149 57.3493 85.3735C55.2841 84.7322 53.328 83.8407 51.4809 82.6991C49.6338 81.5574 47.9149 80.1978 46.3243 78.62C44.721 77.0294 43.2651 75.2978 41.9567 73.425L46.0165 70.789C47.2607 72.3668 48.5563 73.797 49.9031 75.0797C51.2372 76.3624 52.6417 77.4592 54.1168 78.3699C55.592 79.2678 57.1312 79.9669 58.7346 80.4671C60.338 80.9546 62.0184 81.1983 63.7757 81.1983C65.533 81.1983 67.2006 81.0123 68.7783 80.6403C70.356 80.2555 71.8632 79.6783 73.2999 78.9086C74.7365 78.139 76.1154 77.1705 77.4366 76.0033C78.745 74.836 80.0213 73.4635 81.2655 71.8858L85.3253 74.5217C84.017 76.3945 82.5739 78.0684 80.9962 79.5436C79.4313 81.0059 77.7445 82.2437 75.9359 83.257C74.1144 84.2576 72.1903 85.0208 70.1636 85.5467C68.1241 86.0726 65.9948 86.3356 63.7757 86.3356Z" fill="#4192F5"/>
</svg>
